G04 EAGLE Gerber RS-274X export*
G75*
%MOMM*%
%FSLAX34Y34*%
%LPD*%
%IN*%
%IPPOS*%
%AMOC8*
5,1,8,0,0,1.08239X$1,22.5*%
G01*
%ADD10C,0.254000*%


D10*
X391160Y346710D02*
X391315Y343168D01*
X391777Y339653D01*
X392545Y336192D01*
X393611Y332810D01*
X394968Y329535D01*
X396605Y326390D01*
X398510Y323400D01*
X400668Y320587D01*
X403063Y317973D01*
X405677Y315578D01*
X408490Y313420D01*
X411480Y311515D01*
X414625Y309878D01*
X417900Y308521D01*
X421282Y307455D01*
X424743Y306687D01*
X428258Y306225D01*
X431800Y306070D01*
X1559560Y306070D01*
X1563091Y306224D01*
X1566595Y306685D01*
X1570046Y307450D01*
X1573416Y308513D01*
X1576682Y309866D01*
X1579817Y311498D01*
X1582797Y313397D01*
X1585601Y315548D01*
X1588207Y317936D01*
X1590595Y320542D01*
X1592746Y323346D01*
X1594645Y326327D01*
X1596277Y329461D01*
X1597630Y332727D01*
X1598693Y336097D01*
X1599458Y339548D01*
X1599919Y343052D01*
X1600073Y346583D01*
X1600073Y723900D01*
X1599916Y727486D01*
X1599448Y731045D01*
X1598671Y734550D01*
X1597591Y737973D01*
X1596218Y741290D01*
X1594560Y744474D01*
X1592631Y747502D01*
X1590446Y750349D01*
X1588021Y752996D01*
X1585374Y755421D01*
X1582527Y757606D01*
X1579499Y759535D01*
X1576315Y761193D01*
X1572998Y762566D01*
X1569575Y763646D01*
X1566070Y764423D01*
X1562511Y764891D01*
X1558925Y765048D01*
X431800Y765048D01*
X428258Y764893D01*
X424743Y764431D01*
X421282Y763663D01*
X417900Y762597D01*
X414625Y761240D01*
X411480Y759603D01*
X408490Y757698D01*
X405677Y755540D01*
X403063Y753145D01*
X400668Y750531D01*
X398510Y747718D01*
X396605Y744728D01*
X394968Y741583D01*
X393611Y738308D01*
X392545Y734926D01*
X391777Y731465D01*
X391315Y727950D01*
X391160Y724408D01*
X391160Y346710D01*
X936352Y529470D02*
X972674Y529470D01*
X972674Y561728D01*
X936352Y561728D01*
X936352Y529470D01*
X1579457Y542760D02*
X1578674Y542829D01*
X1577900Y542965D01*
X1577141Y543168D01*
X1576403Y543437D01*
X1575690Y543769D01*
X1575010Y544162D01*
X1574366Y544613D01*
X1573764Y545118D01*
X1573208Y545674D01*
X1572703Y546276D01*
X1572252Y546920D01*
X1571859Y547600D01*
X1571527Y548313D01*
X1571258Y549051D01*
X1571055Y549810D01*
X1570919Y550584D01*
X1570850Y551367D01*
X1570850Y552153D01*
X1570919Y552936D01*
X1571055Y553710D01*
X1571258Y554469D01*
X1571527Y555207D01*
X1571859Y555920D01*
X1572252Y556600D01*
X1572703Y557244D01*
X1573208Y557846D01*
X1573764Y558402D01*
X1574366Y558907D01*
X1575010Y559358D01*
X1575690Y559751D01*
X1576403Y560083D01*
X1577141Y560352D01*
X1577900Y560555D01*
X1578674Y560692D01*
X1579457Y560760D01*
X1580243Y560760D01*
X1581026Y560692D01*
X1581800Y560555D01*
X1582559Y560352D01*
X1583297Y560083D01*
X1584010Y559751D01*
X1584690Y559358D01*
X1585334Y558907D01*
X1585936Y558402D01*
X1586492Y557846D01*
X1586997Y557244D01*
X1587448Y556600D01*
X1587841Y555920D01*
X1588173Y555207D01*
X1588442Y554469D01*
X1588645Y553710D01*
X1588782Y552936D01*
X1588850Y552153D01*
X1588850Y551367D01*
X1588782Y550584D01*
X1588645Y549810D01*
X1588442Y549051D01*
X1588173Y548313D01*
X1587841Y547600D01*
X1587448Y546920D01*
X1586997Y546276D01*
X1586492Y545674D01*
X1585936Y545118D01*
X1585334Y544613D01*
X1584690Y544162D01*
X1584010Y543769D01*
X1583297Y543437D01*
X1582559Y543168D01*
X1581800Y542965D01*
X1581026Y542829D01*
X1580243Y542760D01*
X1579457Y542760D01*
X1579457Y488260D02*
X1578674Y488329D01*
X1577900Y488465D01*
X1577141Y488668D01*
X1576403Y488937D01*
X1575690Y489269D01*
X1575010Y489662D01*
X1574366Y490113D01*
X1573764Y490618D01*
X1573208Y491174D01*
X1572703Y491776D01*
X1572252Y492420D01*
X1571859Y493100D01*
X1571527Y493813D01*
X1571258Y494551D01*
X1571055Y495310D01*
X1570919Y496084D01*
X1570850Y496867D01*
X1570850Y497653D01*
X1570919Y498436D01*
X1571055Y499210D01*
X1571258Y499969D01*
X1571527Y500707D01*
X1571859Y501420D01*
X1572252Y502100D01*
X1572703Y502744D01*
X1573208Y503346D01*
X1573764Y503902D01*
X1574366Y504407D01*
X1575010Y504858D01*
X1575690Y505251D01*
X1576403Y505583D01*
X1577141Y505852D01*
X1577900Y506055D01*
X1578674Y506192D01*
X1579457Y506260D01*
X1580243Y506260D01*
X1581026Y506192D01*
X1581800Y506055D01*
X1582559Y505852D01*
X1583297Y505583D01*
X1584010Y505251D01*
X1584690Y504858D01*
X1585334Y504407D01*
X1585936Y503902D01*
X1586492Y503346D01*
X1586997Y502744D01*
X1587448Y502100D01*
X1587841Y501420D01*
X1588173Y500707D01*
X1588442Y499969D01*
X1588645Y499210D01*
X1588782Y498436D01*
X1588850Y497653D01*
X1588850Y496867D01*
X1588782Y496084D01*
X1588645Y495310D01*
X1588442Y494551D01*
X1588173Y493813D01*
X1587841Y493100D01*
X1587448Y492420D01*
X1586997Y491776D01*
X1586492Y491174D01*
X1585936Y490618D01*
X1585334Y490113D01*
X1584690Y489662D01*
X1584010Y489269D01*
X1583297Y488937D01*
X1582559Y488668D01*
X1581800Y488465D01*
X1581026Y488329D01*
X1580243Y488260D01*
X1579457Y488260D01*
X1549182Y541260D02*
X1548448Y541332D01*
X1547725Y541476D01*
X1547020Y541690D01*
X1546339Y541972D01*
X1545690Y542319D01*
X1545077Y542729D01*
X1544507Y543196D01*
X1543986Y543717D01*
X1543519Y544287D01*
X1543109Y544900D01*
X1542762Y545549D01*
X1542480Y546230D01*
X1542266Y546935D01*
X1542122Y547658D01*
X1542050Y548392D01*
X1542050Y549128D01*
X1542122Y549862D01*
X1542266Y550585D01*
X1542480Y551290D01*
X1542762Y551971D01*
X1543109Y552620D01*
X1543519Y553233D01*
X1543986Y553803D01*
X1544507Y554324D01*
X1545077Y554791D01*
X1545690Y555201D01*
X1546339Y555548D01*
X1547020Y555830D01*
X1547725Y556044D01*
X1548448Y556188D01*
X1549182Y556260D01*
X1549918Y556260D01*
X1550652Y556188D01*
X1551375Y556044D01*
X1552080Y555830D01*
X1552761Y555548D01*
X1553410Y555201D01*
X1554023Y554791D01*
X1554593Y554324D01*
X1555114Y553803D01*
X1555581Y553233D01*
X1555991Y552620D01*
X1556338Y551971D01*
X1556620Y551290D01*
X1556834Y550585D01*
X1556978Y549862D01*
X1557050Y549128D01*
X1557050Y548392D01*
X1556978Y547658D01*
X1556834Y546935D01*
X1556620Y546230D01*
X1556338Y545549D01*
X1555991Y544900D01*
X1555581Y544287D01*
X1555114Y543717D01*
X1554593Y543196D01*
X1554023Y542729D01*
X1553410Y542319D01*
X1552761Y541972D01*
X1552080Y541690D01*
X1551375Y541476D01*
X1550652Y541332D01*
X1549918Y541260D01*
X1549182Y541260D01*
X1549182Y492760D02*
X1548448Y492832D01*
X1547725Y492976D01*
X1547020Y493190D01*
X1546339Y493472D01*
X1545690Y493819D01*
X1545077Y494229D01*
X1544507Y494696D01*
X1543986Y495217D01*
X1543519Y495787D01*
X1543109Y496400D01*
X1542762Y497049D01*
X1542480Y497730D01*
X1542266Y498435D01*
X1542122Y499158D01*
X1542050Y499892D01*
X1542050Y500628D01*
X1542122Y501362D01*
X1542266Y502085D01*
X1542480Y502790D01*
X1542762Y503471D01*
X1543109Y504120D01*
X1543519Y504733D01*
X1543986Y505303D01*
X1544507Y505824D01*
X1545077Y506291D01*
X1545690Y506701D01*
X1546339Y507048D01*
X1547020Y507330D01*
X1547725Y507544D01*
X1548448Y507688D01*
X1549182Y507760D01*
X1549918Y507760D01*
X1550652Y507688D01*
X1551375Y507544D01*
X1552080Y507330D01*
X1552761Y507048D01*
X1553410Y506701D01*
X1554023Y506291D01*
X1554593Y505824D01*
X1555114Y505303D01*
X1555581Y504733D01*
X1555991Y504120D01*
X1556338Y503471D01*
X1556620Y502790D01*
X1556834Y502085D01*
X1556978Y501362D01*
X1557050Y500628D01*
X1557050Y499892D01*
X1556978Y499158D01*
X1556834Y498435D01*
X1556620Y497730D01*
X1556338Y497049D01*
X1555991Y496400D01*
X1555581Y495787D01*
X1555114Y495217D01*
X1554593Y494696D01*
X1554023Y494229D01*
X1553410Y493819D01*
X1552761Y493472D01*
X1552080Y493190D01*
X1551375Y492976D01*
X1550652Y492832D01*
X1549918Y492760D01*
X1549182Y492760D01*
M02*
