M48
;GenerationSoftware,Autodesk,EAGLE,9.6.2*%
;CreationDate,2024-05-14T14:09:58Z*%
FMAT,2
ICI,OFF
METRIC,TZ,000.000
T9C0.350
T8C0.500
T7C0.800
T6C1.000
T5C1.016
T4C1.500
T3C1.650
T2C1.800
T1C3.200
%
G90
M71
T1
X43180Y72390
X155956Y34671
X155956Y72390
X43180Y34671
T2
X157985Y55176
X157985Y49726
T3
X139154Y71247
X49543Y71247
X54623Y71247
X122784Y71247
X69863Y71247
X149314Y71247
X144234Y71247
X64783Y71247
X134074Y71247
X128994Y71247
X117704Y71247
X112624Y71247
X107544Y71247
X102464Y71247
X96279Y71260
X91199Y71260
X86119Y71260
X81039Y71260
X75959Y71260
X59703Y71247
T4
X154955Y54876
X154955Y50026
T5
X64008Y36703
X64008Y34163
X61468Y36703
X61468Y34163
X58928Y34163
X56388Y34163
X53848Y36703
X51308Y36703
X51308Y34163
X53848Y34163
X74168Y36703
X74168Y34163
X71628Y36703
X69088Y34163
X56388Y36703
X69088Y36703
X71628Y34163
X66548Y36703
X58928Y36703
X66548Y34163
T6
X142875Y43561
X145415Y43561
X147955Y43561
X150495Y43561
X153035Y43561
X155575Y43561
X158115Y43561
X110085Y54991
X110085Y49911
X110085Y52451
X109855Y61341
X135255Y43561
X137795Y43561
X158115Y61341
X155575Y61341
X142875Y61341
X140335Y61341
X153035Y61341
X150495Y61341
X145415Y61341
X147955Y61341
X137795Y61341
X135255Y61341
X132715Y61341
X130175Y61341
X127635Y61341
X125095Y61341
X122555Y61341
X120015Y61341
X117475Y61341
X114935Y61341
X112395Y61341
X140335Y43561
X109855Y43561
X112395Y43561
X114935Y43561
X117475Y43561
X120015Y43561
X122555Y43561
X125095Y43561
X127635Y43561
X130175Y43561
X132715Y43561
T7
X80899Y36957
X83439Y36957
X85979Y36957
X88519Y36957
X57023Y60452
X59563Y60452
X62103Y60452
X64643Y60452
X57023Y49784
X59563Y49784
X62103Y49784
X64643Y49784
X45212Y63500
X45212Y60960
X45212Y58420
X45212Y55880
X71374Y60452
X73914Y60452
X76454Y60452
X78994Y60452
X45339Y49149
X45339Y46609
X45339Y44069
X45339Y41529
X95631Y36957
X98171Y36957
X100711Y36957
X103251Y36957
X71628Y49784
X74168Y49784
X76708Y49784
X79248Y49784
T8
X44767Y36259
X43180Y74613
X43180Y36894
X43180Y32448
X45402Y34671
X40958Y34671
X41593Y36259
X44767Y33084
X41593Y33084
X155956Y74613
X155956Y70168
X158179Y72390
X154369Y73978
X157544Y73978
X157544Y70803
X154369Y70803
X155956Y36894
X155956Y32448
X158179Y34671
X153734Y34671
X154369Y36259
X157544Y36259
X157544Y33084
X154369Y33084
X43180Y70168
X45402Y72390
X40958Y72390
X41593Y73978
X44767Y73978
X44767Y70803
X41593Y70803
X153734Y72390
T9
X68199Y55967
X124206Y32766
X86106Y42037
X84455Y40767
X108966Y40005
X58801Y73660
X51181Y56388
X51181Y53721
X65913Y63373
X50165Y56515
X60198Y63881
X52999Y56134
X54991Y56007
X55753Y64135
X51915Y65278
X52090Y56261
X52090Y53721
X53975Y56134
X151384Y57658
X149733Y56896
X149352Y68707
X141859Y73152
X70640Y61715
X52999Y53721
X137033Y71120
X68961Y62230
X53975Y53594
X69870Y62230
X69977Y66548
X81153Y67310
X50165Y53721
X54991Y53467
X86233Y66421
X56007Y53467
X56007Y56007
X91948Y66040
X70866Y56876
X131699Y55372
X127889Y56134
X100330Y55245
X88420Y56515
X68227Y59309
X147320Y49276
X127635Y58547
X79883Y73660
X121666Y32001
X103974Y59778
X68199Y57785
X70812Y57785
X117094Y57277
X98425Y51181
X105791Y54737
X104394Y56261
X127437Y55301
X135989Y53594
X68227Y56876
X70993Y55967
M30