M48
;GenerationSoftware,Autodesk,EAGLE,9.6.2*%
;CreationDate,2024-05-14T14:27:15Z*%
FMAT,2
ICI,OFF
METRIC,TZ,000.000
T9C0.350
T8C0.500
T7C0.800
T6C1.000
T5C1.016
T4C1.500
T3C1.650
T2C1.800
T1C3.200
%
G90
M71
T1
X155956Y72390
X43180Y72390
X155956Y34671
X43180Y25400
X155956Y-12319
X155956Y25400
X43180Y-12319
X43180Y34671
T2
X157985Y2736
X157985Y49726
X157985Y55176
X157985Y8186
T3
X144234Y71247
X149314Y71247
X122784Y71247
X128994Y71247
X117704Y71247
X112624Y71247
X107544Y71247
X102464Y71247
X96279Y71260
X91199Y71260
X54623Y24257
X86119Y71260
X81039Y71260
X75959Y71260
X149314Y24257
X144234Y24257
X139154Y24257
X134074Y24257
X128994Y24257
X122784Y24257
X117704Y24257
X112624Y24257
X107544Y24257
X102464Y24257
X96279Y24270
X91199Y24270
X86119Y24270
X81039Y24270
X75959Y24270
X69863Y24257
X64783Y24257
X59703Y24257
X69863Y71247
X49543Y24257
X64783Y71247
X59703Y71247
X54623Y71247
X49543Y71247
X134074Y71247
X139154Y71247
T4
X154955Y7886
X154955Y54876
X154955Y3036
X154955Y50026
T5
X74168Y-10287
X74168Y-12827
X71628Y-10287
X71628Y-12827
X69088Y-10287
X69088Y-12827
X66548Y-10287
X66548Y-12827
X64008Y-10287
X64008Y-12827
X61468Y-10287
X61468Y-12827
X58928Y-10287
X56388Y-10287
X56388Y-12827
X53848Y-12827
X51308Y-10287
X51308Y-12827
X53848Y-10287
X69088Y36703
X69088Y34163
X66548Y36703
X66548Y34163
X64008Y36703
X64008Y34163
X61468Y36703
X58928Y-12827
X61468Y34163
X58928Y36703
X58928Y34163
X56388Y36703
X56388Y34163
X53848Y36703
X53848Y34163
X51308Y36703
X51308Y34163
X74168Y36703
X74168Y34163
X71628Y36703
X71628Y34163
T6
X110085Y2921
X110085Y5461
X110085Y8001
X158115Y-3429
X155575Y-3429
X153035Y-3429
X150495Y-3429
X147955Y-3429
X145415Y-3429
X142875Y-3429
X140335Y-3429
X137795Y-3429
X135255Y-3429
X132715Y-3429
X130175Y-3429
X155575Y14351
X158115Y14351
X109855Y-3429
X142875Y14351
X140335Y14351
X153035Y14351
X150495Y14351
X145415Y14351
X147955Y14351
X137795Y14351
X135255Y14351
X158115Y61341
X155575Y61341
X142875Y61341
X140335Y61341
X153035Y61341
X150495Y61341
X145415Y61341
X147955Y61341
X137795Y61341
X135255Y61341
X132715Y61341
X130175Y61341
X127635Y61341
X125095Y61341
X122555Y61341
X132715Y14351
X117475Y61341
X114935Y61341
X112395Y61341
X109855Y61341
X109855Y43561
X112395Y43561
X114935Y43561
X117475Y43561
X120015Y43561
X122555Y43561
X125095Y43561
X127635Y43561
X130175Y43561
X132715Y43561
X135255Y43561
X137795Y43561
X140335Y43561
X142875Y43561
X145415Y43561
X147955Y43561
X150495Y43561
X120015Y61341
X155575Y43561
X158115Y43561
X110085Y54991
X110085Y52451
X110085Y49911
X130175Y14351
X127635Y14351
X125095Y14351
X122555Y14351
X120015Y14351
X117475Y14351
X114935Y14351
X112395Y14351
X109855Y14351
X112395Y-3429
X114935Y-3429
X117475Y-3429
X120015Y-3429
X122555Y-3429
X125095Y-3429
X127635Y-3429
X153035Y43561
T7
X45212Y13970
X45212Y11430
X45212Y8890
X71374Y60452
X73914Y60452
X76454Y60452
X78994Y60452
X45339Y49149
X45339Y46609
X45339Y44069
X45339Y41529
X95631Y36957
X98171Y36957
X100711Y36957
X103251Y36957
X71628Y49784
X74168Y49784
X76708Y49784
X79248Y49784
X80899Y36957
X83439Y36957
X85979Y36957
X88519Y36957
X57023Y60452
X59563Y60452
X62103Y60452
X64643Y60452
X57023Y49784
X59563Y49784
X62103Y49784
X64643Y49784
X45212Y63500
X45212Y60960
X45212Y58420
X45212Y55880
X71374Y13462
X73914Y13462
X76454Y13462
X78994Y13462
X45339Y2159
X45339Y-381
X45339Y-2921
X45339Y-5461
X95631Y-10033
X98171Y-10033
X100711Y-10033
X103251Y-10033
X71628Y2794
X74168Y2794
X76708Y2794
X79248Y2794
X80899Y-10033
X83439Y-10033
X85979Y-10033
X88519Y-10033
X57023Y13462
X59563Y13462
X62103Y13462
X64643Y13462
X57023Y2794
X59563Y2794
X62103Y2794
X64643Y2794
X45212Y16510
T8
X41593Y70803
X44767Y73978
X44767Y70803
X157544Y70803
X154369Y70803
X157544Y73978
X155956Y36894
X155956Y32448
X158179Y34671
X153734Y34671
X154369Y36259
X157544Y36259
X157544Y33084
X154369Y33084
X41593Y36259
X43180Y74613
X43180Y70168
X45402Y72390
X40958Y72390
X41593Y73978
X43180Y36894
X43180Y32448
X45402Y34671
X40958Y34671
X44767Y36259
X44767Y33084
X41593Y33084
X155956Y74613
X155956Y70168
X154369Y23812
X43180Y-10097
X43180Y-14541
X45402Y-12319
X40958Y-12319
X41593Y-10732
X44767Y-10732
X44767Y-13906
X41593Y-13906
X155956Y27622
X155956Y23177
X158179Y25400
X153734Y25400
X154369Y26987
X157544Y26987
X157544Y23812
X155956Y-10097
X155956Y-14541
X158179Y-12319
X153734Y-12319
X154369Y-10732
X157544Y-10732
X157544Y-13906
X154369Y-13906
X43180Y27622
X43180Y23177
X45402Y25400
X40958Y25400
X41593Y26987
X44767Y26987
X44767Y23812
X41593Y23812
X158179Y72390
X153734Y72390
X154369Y73978
T9
X127635Y58547
X103974Y59778
X68199Y57785
X70812Y57785
X98425Y51181
X105791Y54737
X127437Y55301
X135989Y53594
X68227Y56876
X70866Y56876
X131699Y55372
X127889Y56134
X104394Y56261
X70993Y55967
X68199Y55967
X124206Y32766
X121666Y32001
X86106Y42037
X84455Y40767
X108966Y40005
X58801Y73660
X51181Y56388
X51181Y53721
X65913Y63373
X50165Y56515
X151384Y57658
X127635Y11557
X103974Y12788
X68199Y10795
X70812Y10795
X117094Y10287
X98425Y4191
X105791Y7747
X127437Y8311
X135989Y6604
X68227Y9886
X70866Y9886
X131699Y8382
X127889Y9144
X104394Y9271
X70993Y8977
X68199Y8977
X124206Y-14224
X149733Y56896
X149352Y68707
X86106Y-4953
X84455Y-6223
X50165Y53721
X100330Y8255
X88420Y9525
X68227Y12319
X121666Y-14989
X147320Y2286
X108966Y-6985
X60198Y63881
X52999Y56134
X52999Y53721
X55753Y64135
X51915Y65278
X52090Y56261
X147320Y49276
X52090Y53721
X53975Y56134
X53975Y53594
X91948Y66040
X79883Y73660
X56007Y56007
X56007Y53467
X86233Y66421
X58801Y26670
X54991Y53467
X81153Y67310
X69977Y66548
X69870Y62230
X68961Y62230
X51181Y9398
X51181Y6731
X65913Y16383
X50165Y9525
X50165Y6731
X60198Y16891
X52999Y9144
X52999Y6731
X137033Y71120
X55753Y17145
X51915Y18288
X52090Y9271
X52090Y6731
X53975Y9144
X53975Y6604
X91948Y19050
X117094Y57277
X70640Y61715
X79883Y26670
X56007Y9017
X56007Y6477
X86233Y19431
X54991Y9017
X54991Y6477
X81153Y20320
X69977Y19558
X141859Y73152
X69870Y15240
X68961Y15240
X137033Y24130
X70640Y14725
X141859Y26162
X149352Y21717
X149733Y9906
X151384Y10668
X100330Y55245
X88420Y56515
X68227Y59309
X54991Y56007
M30