G04 EAGLE Gerber RS-274X export*
G75*
%MOMM*%
%FSLAX34Y34*%
%LPD*%
%INSilkscreen Bottom*%
%IPPOS*%
%AMOC8*
5,1,8,0,0,1.08239X$1,22.5*%
G01*
%ADD10C,0.100000*%
%ADD11C,0.200000*%
%ADD12C,0.101600*%


D10*
X942140Y559218D02*
X967140Y559218D01*
X967140Y531218D02*
X942140Y531218D01*
D11*
X995640Y552218D02*
X995596Y552220D01*
X995553Y552226D01*
X995511Y552235D01*
X995469Y552248D01*
X995429Y552265D01*
X995390Y552285D01*
X995353Y552308D01*
X995319Y552335D01*
X995286Y552364D01*
X995257Y552397D01*
X995230Y552431D01*
X995207Y552468D01*
X995187Y552507D01*
X995170Y552547D01*
X995157Y552589D01*
X995148Y552631D01*
X995142Y552674D01*
X995140Y552718D01*
X995142Y552762D01*
X995148Y552805D01*
X995157Y552847D01*
X995170Y552889D01*
X995187Y552929D01*
X995207Y552968D01*
X995230Y553005D01*
X995257Y553039D01*
X995286Y553072D01*
X995319Y553101D01*
X995353Y553128D01*
X995390Y553151D01*
X995429Y553171D01*
X995469Y553188D01*
X995511Y553201D01*
X995553Y553210D01*
X995596Y553216D01*
X995640Y553218D01*
X995684Y553216D01*
X995727Y553210D01*
X995769Y553201D01*
X995811Y553188D01*
X995851Y553171D01*
X995890Y553151D01*
X995927Y553128D01*
X995961Y553101D01*
X995994Y553072D01*
X996023Y553039D01*
X996050Y553005D01*
X996073Y552968D01*
X996093Y552929D01*
X996110Y552889D01*
X996123Y552847D01*
X996132Y552805D01*
X996138Y552762D01*
X996140Y552718D01*
X996138Y552674D01*
X996132Y552631D01*
X996123Y552589D01*
X996110Y552547D01*
X996093Y552507D01*
X996073Y552468D01*
X996050Y552431D01*
X996023Y552397D01*
X995994Y552364D01*
X995961Y552335D01*
X995927Y552308D01*
X995890Y552285D01*
X995851Y552265D01*
X995811Y552248D01*
X995769Y552235D01*
X995727Y552226D01*
X995684Y552220D01*
X995640Y552218D01*
X995596Y552220D01*
X995553Y552226D01*
X995511Y552235D01*
X995469Y552248D01*
X995429Y552265D01*
X995390Y552285D01*
X995353Y552308D01*
X995319Y552335D01*
X995286Y552364D01*
X995257Y552397D01*
X995230Y552431D01*
X995207Y552468D01*
X995187Y552507D01*
X995170Y552547D01*
X995157Y552589D01*
X995148Y552631D01*
X995142Y552674D01*
X995140Y552718D01*
X995142Y552762D01*
X995148Y552805D01*
X995157Y552847D01*
X995170Y552889D01*
X995187Y552929D01*
X995207Y552968D01*
X995230Y553005D01*
X995257Y553039D01*
X995286Y553072D01*
X995319Y553101D01*
X995353Y553128D01*
X995390Y553151D01*
X995429Y553171D01*
X995469Y553188D01*
X995511Y553201D01*
X995553Y553210D01*
X995596Y553216D01*
X995640Y553218D01*
D12*
X973626Y567316D02*
X973626Y579000D01*
X973626Y567316D02*
X968433Y567316D01*
X963720Y567316D02*
X958527Y567316D01*
X963720Y567316D02*
X963720Y579000D01*
X958527Y579000D01*
X959825Y573807D02*
X963720Y573807D01*
X953836Y579000D02*
X953836Y567316D01*
X953836Y579000D02*
X950591Y579000D01*
X950478Y578998D01*
X950365Y578992D01*
X950252Y578982D01*
X950139Y578968D01*
X950027Y578951D01*
X949916Y578929D01*
X949806Y578904D01*
X949696Y578874D01*
X949588Y578841D01*
X949481Y578804D01*
X949375Y578764D01*
X949271Y578719D01*
X949168Y578671D01*
X949067Y578620D01*
X948968Y578565D01*
X948871Y578507D01*
X948776Y578445D01*
X948683Y578380D01*
X948593Y578312D01*
X948505Y578241D01*
X948419Y578166D01*
X948336Y578089D01*
X948256Y578009D01*
X948179Y577926D01*
X948104Y577840D01*
X948033Y577752D01*
X947965Y577662D01*
X947900Y577569D01*
X947838Y577474D01*
X947780Y577377D01*
X947725Y577278D01*
X947674Y577177D01*
X947626Y577074D01*
X947581Y576970D01*
X947541Y576864D01*
X947504Y576757D01*
X947471Y576649D01*
X947441Y576539D01*
X947416Y576429D01*
X947394Y576318D01*
X947377Y576206D01*
X947363Y576093D01*
X947353Y575980D01*
X947347Y575867D01*
X947345Y575754D01*
X947345Y570562D01*
X947347Y570449D01*
X947353Y570336D01*
X947363Y570223D01*
X947377Y570110D01*
X947394Y569998D01*
X947416Y569887D01*
X947441Y569777D01*
X947471Y569667D01*
X947504Y569559D01*
X947541Y569452D01*
X947581Y569346D01*
X947626Y569242D01*
X947674Y569139D01*
X947725Y569038D01*
X947780Y568939D01*
X947838Y568842D01*
X947900Y568747D01*
X947965Y568654D01*
X948033Y568564D01*
X948104Y568476D01*
X948179Y568390D01*
X948256Y568307D01*
X948336Y568227D01*
X948419Y568150D01*
X948505Y568075D01*
X948593Y568004D01*
X948683Y567936D01*
X948776Y567871D01*
X948871Y567809D01*
X948968Y567751D01*
X949067Y567696D01*
X949168Y567645D01*
X949271Y567597D01*
X949375Y567552D01*
X949481Y567512D01*
X949588Y567475D01*
X949696Y567442D01*
X949806Y567412D01*
X949916Y567387D01*
X950027Y567365D01*
X950139Y567348D01*
X950252Y567334D01*
X950365Y567324D01*
X950478Y567318D01*
X950591Y567316D01*
X953836Y567316D01*
X942025Y576404D02*
X938780Y579000D01*
X938780Y567316D01*
X942025Y567316D02*
X935534Y567316D01*
D10*
X942140Y89318D02*
X967140Y89318D01*
X967140Y61318D02*
X942140Y61318D01*
D11*
X995640Y82318D02*
X995596Y82320D01*
X995553Y82326D01*
X995511Y82335D01*
X995469Y82348D01*
X995429Y82365D01*
X995390Y82385D01*
X995353Y82408D01*
X995319Y82435D01*
X995286Y82464D01*
X995257Y82497D01*
X995230Y82531D01*
X995207Y82568D01*
X995187Y82607D01*
X995170Y82647D01*
X995157Y82689D01*
X995148Y82731D01*
X995142Y82774D01*
X995140Y82818D01*
X995142Y82862D01*
X995148Y82905D01*
X995157Y82947D01*
X995170Y82989D01*
X995187Y83029D01*
X995207Y83068D01*
X995230Y83105D01*
X995257Y83139D01*
X995286Y83172D01*
X995319Y83201D01*
X995353Y83228D01*
X995390Y83251D01*
X995429Y83271D01*
X995469Y83288D01*
X995511Y83301D01*
X995553Y83310D01*
X995596Y83316D01*
X995640Y83318D01*
X995684Y83316D01*
X995727Y83310D01*
X995769Y83301D01*
X995811Y83288D01*
X995851Y83271D01*
X995890Y83251D01*
X995927Y83228D01*
X995961Y83201D01*
X995994Y83172D01*
X996023Y83139D01*
X996050Y83105D01*
X996073Y83068D01*
X996093Y83029D01*
X996110Y82989D01*
X996123Y82947D01*
X996132Y82905D01*
X996138Y82862D01*
X996140Y82818D01*
X996138Y82774D01*
X996132Y82731D01*
X996123Y82689D01*
X996110Y82647D01*
X996093Y82607D01*
X996073Y82568D01*
X996050Y82531D01*
X996023Y82497D01*
X995994Y82464D01*
X995961Y82435D01*
X995927Y82408D01*
X995890Y82385D01*
X995851Y82365D01*
X995811Y82348D01*
X995769Y82335D01*
X995727Y82326D01*
X995684Y82320D01*
X995640Y82318D01*
X995596Y82320D01*
X995553Y82326D01*
X995511Y82335D01*
X995469Y82348D01*
X995429Y82365D01*
X995390Y82385D01*
X995353Y82408D01*
X995319Y82435D01*
X995286Y82464D01*
X995257Y82497D01*
X995230Y82531D01*
X995207Y82568D01*
X995187Y82607D01*
X995170Y82647D01*
X995157Y82689D01*
X995148Y82731D01*
X995142Y82774D01*
X995140Y82818D01*
X995142Y82862D01*
X995148Y82905D01*
X995157Y82947D01*
X995170Y82989D01*
X995187Y83029D01*
X995207Y83068D01*
X995230Y83105D01*
X995257Y83139D01*
X995286Y83172D01*
X995319Y83201D01*
X995353Y83228D01*
X995390Y83251D01*
X995429Y83271D01*
X995469Y83288D01*
X995511Y83301D01*
X995553Y83310D01*
X995596Y83316D01*
X995640Y83318D01*
D12*
X973626Y97416D02*
X973626Y109100D01*
X973626Y97416D02*
X968433Y97416D01*
X963720Y97416D02*
X958527Y97416D01*
X963720Y97416D02*
X963720Y109100D01*
X958527Y109100D01*
X959825Y103907D02*
X963720Y103907D01*
X953836Y109100D02*
X953836Y97416D01*
X953836Y109100D02*
X950591Y109100D01*
X950478Y109098D01*
X950365Y109092D01*
X950252Y109082D01*
X950139Y109068D01*
X950027Y109051D01*
X949916Y109029D01*
X949806Y109004D01*
X949696Y108974D01*
X949588Y108941D01*
X949481Y108904D01*
X949375Y108864D01*
X949271Y108819D01*
X949168Y108771D01*
X949067Y108720D01*
X948968Y108665D01*
X948871Y108607D01*
X948776Y108545D01*
X948683Y108480D01*
X948593Y108412D01*
X948505Y108341D01*
X948419Y108266D01*
X948336Y108189D01*
X948256Y108109D01*
X948179Y108026D01*
X948104Y107940D01*
X948033Y107852D01*
X947965Y107762D01*
X947900Y107669D01*
X947838Y107574D01*
X947780Y107477D01*
X947725Y107378D01*
X947674Y107277D01*
X947626Y107174D01*
X947581Y107070D01*
X947541Y106964D01*
X947504Y106857D01*
X947471Y106749D01*
X947441Y106639D01*
X947416Y106529D01*
X947394Y106418D01*
X947377Y106306D01*
X947363Y106193D01*
X947353Y106080D01*
X947347Y105967D01*
X947345Y105854D01*
X947345Y100662D01*
X947347Y100549D01*
X947353Y100436D01*
X947363Y100323D01*
X947377Y100210D01*
X947394Y100098D01*
X947416Y99987D01*
X947441Y99877D01*
X947471Y99767D01*
X947504Y99659D01*
X947541Y99552D01*
X947581Y99446D01*
X947626Y99342D01*
X947674Y99239D01*
X947725Y99138D01*
X947780Y99039D01*
X947838Y98942D01*
X947900Y98847D01*
X947965Y98754D01*
X948033Y98664D01*
X948104Y98576D01*
X948179Y98490D01*
X948256Y98407D01*
X948336Y98327D01*
X948419Y98250D01*
X948505Y98175D01*
X948593Y98104D01*
X948683Y98036D01*
X948776Y97971D01*
X948871Y97909D01*
X948968Y97851D01*
X949067Y97796D01*
X949168Y97745D01*
X949271Y97697D01*
X949375Y97652D01*
X949481Y97612D01*
X949588Y97575D01*
X949696Y97542D01*
X949806Y97512D01*
X949916Y97487D01*
X950027Y97465D01*
X950139Y97448D01*
X950252Y97434D01*
X950365Y97424D01*
X950478Y97418D01*
X950591Y97416D01*
X953836Y97416D01*
X938455Y109100D02*
X938348Y109098D01*
X938242Y109092D01*
X938136Y109082D01*
X938030Y109069D01*
X937924Y109051D01*
X937820Y109030D01*
X937716Y109005D01*
X937613Y108976D01*
X937512Y108944D01*
X937412Y108907D01*
X937313Y108867D01*
X937215Y108824D01*
X937119Y108777D01*
X937025Y108726D01*
X936933Y108672D01*
X936843Y108615D01*
X936755Y108555D01*
X936670Y108491D01*
X936587Y108424D01*
X936506Y108354D01*
X936428Y108282D01*
X936352Y108206D01*
X936280Y108128D01*
X936210Y108047D01*
X936143Y107964D01*
X936079Y107879D01*
X936019Y107791D01*
X935962Y107701D01*
X935908Y107609D01*
X935857Y107515D01*
X935810Y107419D01*
X935767Y107321D01*
X935727Y107222D01*
X935690Y107122D01*
X935658Y107021D01*
X935629Y106918D01*
X935604Y106814D01*
X935583Y106710D01*
X935565Y106604D01*
X935552Y106498D01*
X935542Y106392D01*
X935536Y106286D01*
X935534Y106179D01*
X938455Y109100D02*
X938576Y109098D01*
X938697Y109092D01*
X938817Y109082D01*
X938938Y109069D01*
X939057Y109051D01*
X939177Y109030D01*
X939295Y109005D01*
X939412Y108976D01*
X939529Y108943D01*
X939644Y108907D01*
X939758Y108866D01*
X939871Y108823D01*
X939983Y108775D01*
X940092Y108724D01*
X940200Y108669D01*
X940307Y108611D01*
X940411Y108550D01*
X940513Y108485D01*
X940613Y108417D01*
X940711Y108346D01*
X940807Y108272D01*
X940900Y108195D01*
X940990Y108114D01*
X941078Y108031D01*
X941163Y107945D01*
X941246Y107856D01*
X941325Y107765D01*
X941402Y107671D01*
X941475Y107575D01*
X941545Y107477D01*
X941612Y107376D01*
X941676Y107273D01*
X941737Y107168D01*
X941794Y107061D01*
X941847Y106953D01*
X941897Y106843D01*
X941943Y106731D01*
X941986Y106618D01*
X942025Y106503D01*
X936509Y103907D02*
X936430Y103985D01*
X936354Y104065D01*
X936281Y104148D01*
X936211Y104234D01*
X936144Y104321D01*
X936080Y104412D01*
X936020Y104504D01*
X935962Y104598D01*
X935908Y104695D01*
X935858Y104793D01*
X935811Y104893D01*
X935767Y104994D01*
X935727Y105097D01*
X935691Y105202D01*
X935659Y105307D01*
X935630Y105414D01*
X935605Y105521D01*
X935583Y105630D01*
X935566Y105739D01*
X935552Y105848D01*
X935543Y105958D01*
X935537Y106069D01*
X935535Y106179D01*
X936508Y103907D02*
X942025Y97416D01*
X935534Y97416D01*
M02*
