G04 EAGLE Gerber RS-274X export*
G75*
%MOMM*%
%FSLAX34Y34*%
%LPD*%
%INSoldermask Top*%
%IPPOS*%
%AMOC8*
5,1,8,0,0,1.08239X$1,22.5*%
G01*
%ADD10C,1.711200*%
%ADD11R,1.903200X3.703200*%
%ADD12C,2.003200*%
%ADD13C,1.703200*%
%ADD14R,3.703200X1.903200*%
%ADD15R,2.678200X2.678200*%
%ADD16C,2.678200*%
%ADD17R,1.511200X1.511200*%
%ADD18C,1.511200*%
%ADD19R,1.603200X1.203200*%
%ADD20R,1.153200X1.103200*%
%ADD21P,1.869504X8X22.500000*%
%ADD22C,6.203200*%
%ADD23R,1.223200X1.673200*%


D10*
X1581150Y613410D03*
X1555750Y613410D03*
X1428750Y613410D03*
X1403350Y613410D03*
X1530350Y613410D03*
X1504950Y613410D03*
X1454150Y613410D03*
X1479550Y613410D03*
X1377950Y613410D03*
X1352550Y613410D03*
X1327150Y613410D03*
X1301750Y613410D03*
X1276350Y613410D03*
X1250950Y613410D03*
X1225550Y613410D03*
X1200150Y613410D03*
X1174750Y613410D03*
X1149350Y613410D03*
X1123950Y613410D03*
X1098550Y613410D03*
X1098550Y435610D03*
X1123950Y435610D03*
X1149350Y435610D03*
X1174750Y435610D03*
X1200150Y435610D03*
X1225550Y435610D03*
X1250950Y435610D03*
X1276350Y435610D03*
X1301750Y435610D03*
X1327150Y435610D03*
X1352550Y435610D03*
X1377950Y435610D03*
X1403350Y435610D03*
X1428750Y435610D03*
X1454150Y435610D03*
X1479550Y435610D03*
X1504950Y435610D03*
X1530350Y435610D03*
X1555750Y435610D03*
X1581150Y435610D03*
D11*
X1581150Y624510D03*
X1555750Y624510D03*
X1530350Y624510D03*
X1504950Y624510D03*
X1479550Y624510D03*
X1454150Y624510D03*
X1428750Y624510D03*
X1403350Y624510D03*
X1377950Y624510D03*
X1352550Y624510D03*
X1327150Y624510D03*
X1301750Y624510D03*
X1276350Y624510D03*
X1250950Y624510D03*
X1225550Y624510D03*
X1200150Y624510D03*
X1174750Y624510D03*
X1149350Y624510D03*
X1123950Y624510D03*
X1098550Y624510D03*
X1098550Y424510D03*
X1123950Y424510D03*
X1149350Y424510D03*
X1174750Y424510D03*
X1200150Y424510D03*
X1225550Y424510D03*
X1250950Y424510D03*
X1276350Y424510D03*
X1301750Y424510D03*
X1327150Y424510D03*
X1352550Y424510D03*
X1377950Y424510D03*
X1403350Y424510D03*
X1428750Y424510D03*
X1454150Y424510D03*
X1479550Y424510D03*
X1504950Y424510D03*
X1530350Y424510D03*
X1555750Y424510D03*
X1581150Y424510D03*
D12*
X1579850Y551760D03*
X1579850Y497260D03*
D13*
X1549550Y548760D03*
X1549550Y500260D03*
D10*
X1100850Y549910D03*
X1100850Y524510D03*
X1100850Y499110D03*
D14*
X1090600Y549910D03*
X1090600Y524510D03*
X1090600Y499110D03*
D15*
X495427Y712470D03*
D16*
X546227Y712470D03*
X597027Y712470D03*
X647827Y712470D03*
X698627Y712470D03*
D15*
X759587Y712597D03*
D16*
X810387Y712597D03*
X861187Y712597D03*
X911987Y712597D03*
X962787Y712597D03*
D15*
X1024636Y712470D03*
D16*
X1075436Y712470D03*
X1126236Y712470D03*
X1177036Y712470D03*
X1227836Y712470D03*
D15*
X1289939Y712470D03*
D16*
X1340739Y712470D03*
X1391539Y712470D03*
X1442339Y712470D03*
X1493139Y712470D03*
D17*
X713740Y604520D03*
D18*
X739140Y604520D03*
X764540Y604520D03*
X789940Y604520D03*
D17*
X453390Y491490D03*
D18*
X453390Y466090D03*
X453390Y440690D03*
X453390Y415290D03*
D17*
X956310Y369570D03*
D18*
X981710Y369570D03*
X1007110Y369570D03*
X1032510Y369570D03*
D17*
X716280Y497840D03*
D18*
X741680Y497840D03*
X767080Y497840D03*
X792480Y497840D03*
D17*
X808990Y369570D03*
D18*
X834390Y369570D03*
X859790Y369570D03*
X885190Y369570D03*
D17*
X570230Y604520D03*
D18*
X595630Y604520D03*
X621030Y604520D03*
X646430Y604520D03*
D17*
X570230Y497840D03*
D18*
X595630Y497840D03*
X621030Y497840D03*
X646430Y497840D03*
D19*
X970280Y606400D03*
X970280Y587400D03*
X948690Y606400D03*
X948690Y587400D03*
D20*
X835660Y432690D03*
X835660Y448690D03*
X852170Y432690D03*
X852170Y448690D03*
X868680Y432690D03*
X868680Y448690D03*
X885190Y432690D03*
X885190Y448690D03*
D21*
X513080Y341630D03*
X513080Y367030D03*
X538480Y341630D03*
X538480Y367030D03*
X563880Y341630D03*
X563880Y367030D03*
X589280Y341630D03*
X589280Y367030D03*
X614680Y341630D03*
X614680Y367030D03*
X640080Y341630D03*
X640080Y367030D03*
X665480Y341630D03*
X665480Y367030D03*
X690880Y341630D03*
X690880Y367030D03*
X716280Y341630D03*
X716280Y367030D03*
X741680Y341630D03*
X741680Y367030D03*
D22*
X431800Y346710D03*
X1559560Y723900D03*
X1559560Y346710D03*
X431800Y723900D03*
D17*
X452120Y635000D03*
D18*
X452120Y609600D03*
X452120Y584200D03*
X452120Y558800D03*
D23*
X944400Y506730D03*
X960600Y506730D03*
D10*
X1581150Y143510D03*
X1555750Y143510D03*
X1428750Y143510D03*
X1403350Y143510D03*
X1530350Y143510D03*
X1504950Y143510D03*
X1454150Y143510D03*
X1479550Y143510D03*
X1377950Y143510D03*
X1352550Y143510D03*
X1327150Y143510D03*
X1301750Y143510D03*
X1276350Y143510D03*
X1250950Y143510D03*
X1225550Y143510D03*
X1200150Y143510D03*
X1174750Y143510D03*
X1149350Y143510D03*
X1123950Y143510D03*
X1098550Y143510D03*
X1098550Y-34290D03*
X1123950Y-34290D03*
X1149350Y-34290D03*
X1174750Y-34290D03*
X1200150Y-34290D03*
X1225550Y-34290D03*
X1250950Y-34290D03*
X1276350Y-34290D03*
X1301750Y-34290D03*
X1327150Y-34290D03*
X1352550Y-34290D03*
X1377950Y-34290D03*
X1403350Y-34290D03*
X1428750Y-34290D03*
X1454150Y-34290D03*
X1479550Y-34290D03*
X1504950Y-34290D03*
X1530350Y-34290D03*
X1555750Y-34290D03*
X1581150Y-34290D03*
D11*
X1581150Y154610D03*
X1555750Y154610D03*
X1530350Y154610D03*
X1504950Y154610D03*
X1479550Y154610D03*
X1454150Y154610D03*
X1428750Y154610D03*
X1403350Y154610D03*
X1377950Y154610D03*
X1352550Y154610D03*
X1327150Y154610D03*
X1301750Y154610D03*
X1276350Y154610D03*
X1250950Y154610D03*
X1225550Y154610D03*
X1200150Y154610D03*
X1174750Y154610D03*
X1149350Y154610D03*
X1123950Y154610D03*
X1098550Y154610D03*
X1098550Y-45390D03*
X1123950Y-45390D03*
X1149350Y-45390D03*
X1174750Y-45390D03*
X1200150Y-45390D03*
X1225550Y-45390D03*
X1250950Y-45390D03*
X1276350Y-45390D03*
X1301750Y-45390D03*
X1327150Y-45390D03*
X1352550Y-45390D03*
X1377950Y-45390D03*
X1403350Y-45390D03*
X1428750Y-45390D03*
X1454150Y-45390D03*
X1479550Y-45390D03*
X1504950Y-45390D03*
X1530350Y-45390D03*
X1555750Y-45390D03*
X1581150Y-45390D03*
D12*
X1579850Y81860D03*
X1579850Y27360D03*
D13*
X1549550Y78860D03*
X1549550Y30360D03*
D10*
X1100850Y80010D03*
X1100850Y54610D03*
X1100850Y29210D03*
D14*
X1090600Y80010D03*
X1090600Y54610D03*
X1090600Y29210D03*
D15*
X495427Y242570D03*
D16*
X546227Y242570D03*
X597027Y242570D03*
X647827Y242570D03*
X698627Y242570D03*
D15*
X759587Y242697D03*
D16*
X810387Y242697D03*
X861187Y242697D03*
X911987Y242697D03*
X962787Y242697D03*
D15*
X1024636Y242570D03*
D16*
X1075436Y242570D03*
X1126236Y242570D03*
X1177036Y242570D03*
X1227836Y242570D03*
D15*
X1289939Y242570D03*
D16*
X1340739Y242570D03*
X1391539Y242570D03*
X1442339Y242570D03*
X1493139Y242570D03*
D17*
X713740Y134620D03*
D18*
X739140Y134620D03*
X764540Y134620D03*
X789940Y134620D03*
D17*
X453390Y21590D03*
D18*
X453390Y-3810D03*
X453390Y-29210D03*
X453390Y-54610D03*
D17*
X956310Y-100330D03*
D18*
X981710Y-100330D03*
X1007110Y-100330D03*
X1032510Y-100330D03*
D17*
X716280Y27940D03*
D18*
X741680Y27940D03*
X767080Y27940D03*
X792480Y27940D03*
D17*
X808990Y-100330D03*
D18*
X834390Y-100330D03*
X859790Y-100330D03*
X885190Y-100330D03*
D17*
X570230Y134620D03*
D18*
X595630Y134620D03*
X621030Y134620D03*
X646430Y134620D03*
D17*
X570230Y27940D03*
D18*
X595630Y27940D03*
X621030Y27940D03*
X646430Y27940D03*
D19*
X970280Y136500D03*
X970280Y117500D03*
X948690Y136500D03*
X948690Y117500D03*
D20*
X835660Y-37210D03*
X835660Y-21210D03*
X852170Y-37210D03*
X852170Y-21210D03*
X868680Y-37210D03*
X868680Y-21210D03*
X885190Y-37210D03*
X885190Y-21210D03*
D21*
X513080Y-128270D03*
X513080Y-102870D03*
X538480Y-128270D03*
X538480Y-102870D03*
X563880Y-128270D03*
X563880Y-102870D03*
X589280Y-128270D03*
X589280Y-102870D03*
X614680Y-128270D03*
X614680Y-102870D03*
X640080Y-128270D03*
X640080Y-102870D03*
X665480Y-128270D03*
X665480Y-102870D03*
X690880Y-128270D03*
X690880Y-102870D03*
X716280Y-128270D03*
X716280Y-102870D03*
X741680Y-128270D03*
X741680Y-102870D03*
D22*
X431800Y-123190D03*
X1559560Y254000D03*
X1559560Y-123190D03*
X431800Y254000D03*
D17*
X452120Y165100D03*
D18*
X452120Y139700D03*
X452120Y114300D03*
X452120Y88900D03*
D23*
X944400Y36830D03*
X960600Y36830D03*
M02*
