G04 EAGLE Gerber RS-274X export*
G75*
%MOMM*%
%FSLAX34Y34*%
%LPD*%
%INSolderpaste Top*%
%IPPOS*%
%AMOC8*
5,1,8,0,0,1.08239X$1,22.5*%
G01*
%ADD10R,1.700000X3.500000*%
%ADD11R,3.500000X1.700000*%
%ADD12R,1.400000X1.000000*%
%ADD13R,0.950000X0.900000*%
%ADD14R,1.020000X1.470000*%


D10*
X1581150Y624510D03*
X1555750Y624510D03*
X1530350Y624510D03*
X1504950Y624510D03*
X1479550Y624510D03*
X1454150Y624510D03*
X1428750Y624510D03*
X1403350Y624510D03*
X1377950Y624510D03*
X1352550Y624510D03*
X1327150Y624510D03*
X1301750Y624510D03*
X1276350Y624510D03*
X1250950Y624510D03*
X1225550Y624510D03*
X1200150Y624510D03*
X1174750Y624510D03*
X1149350Y624510D03*
X1123950Y624510D03*
X1098550Y624510D03*
X1098550Y424510D03*
X1123950Y424510D03*
X1149350Y424510D03*
X1174750Y424510D03*
X1200150Y424510D03*
X1225550Y424510D03*
X1250950Y424510D03*
X1276350Y424510D03*
X1301750Y424510D03*
X1327150Y424510D03*
X1352550Y424510D03*
X1377950Y424510D03*
X1403350Y424510D03*
X1428750Y424510D03*
X1454150Y424510D03*
X1479550Y424510D03*
X1504950Y424510D03*
X1530350Y424510D03*
X1555750Y424510D03*
X1581150Y424510D03*
D11*
X1090600Y549910D03*
X1090600Y524510D03*
X1090600Y499110D03*
D12*
X970280Y606400D03*
X970280Y587400D03*
X948690Y606400D03*
X948690Y587400D03*
D13*
X835660Y432690D03*
X835660Y448690D03*
X852170Y432690D03*
X852170Y448690D03*
X868680Y432690D03*
X868680Y448690D03*
X885190Y432690D03*
X885190Y448690D03*
D14*
X944400Y506730D03*
X960600Y506730D03*
D10*
X1581150Y154610D03*
X1555750Y154610D03*
X1530350Y154610D03*
X1504950Y154610D03*
X1479550Y154610D03*
X1454150Y154610D03*
X1428750Y154610D03*
X1403350Y154610D03*
X1377950Y154610D03*
X1352550Y154610D03*
X1327150Y154610D03*
X1301750Y154610D03*
X1276350Y154610D03*
X1250950Y154610D03*
X1225550Y154610D03*
X1200150Y154610D03*
X1174750Y154610D03*
X1149350Y154610D03*
X1123950Y154610D03*
X1098550Y154610D03*
X1098550Y-45390D03*
X1123950Y-45390D03*
X1149350Y-45390D03*
X1174750Y-45390D03*
X1200150Y-45390D03*
X1225550Y-45390D03*
X1250950Y-45390D03*
X1276350Y-45390D03*
X1301750Y-45390D03*
X1327150Y-45390D03*
X1352550Y-45390D03*
X1377950Y-45390D03*
X1403350Y-45390D03*
X1428750Y-45390D03*
X1454150Y-45390D03*
X1479550Y-45390D03*
X1504950Y-45390D03*
X1530350Y-45390D03*
X1555750Y-45390D03*
X1581150Y-45390D03*
D11*
X1090600Y80010D03*
X1090600Y54610D03*
X1090600Y29210D03*
D12*
X970280Y136500D03*
X970280Y117500D03*
X948690Y136500D03*
X948690Y117500D03*
D13*
X835660Y-37210D03*
X835660Y-21210D03*
X852170Y-37210D03*
X852170Y-21210D03*
X868680Y-37210D03*
X868680Y-21210D03*
X885190Y-37210D03*
X885190Y-21210D03*
D14*
X944400Y36830D03*
X960600Y36830D03*
M02*
